<?xml version="1.0" encoding="UTF-8" standalone="no"?><svg xmlns="http://www.w3.org/2000/svg" xmlns:xlink="http://www.w3.org/1999/xlink" fill="#8c756a" height="90" preserveAspectRatio="xMidYMid meet" version="1" viewBox="21.2 5.0 57.7 90.0" width="57.7" zoomAndPan="magnify"><g id="change1_1"><path d="M35.791,78.639c0.313-0.16,0.638-0.313,0.969-0.458c1.198-0.525,1.744-1.922,1.22-3.12c-0.525-1.198-1.924-1.741-3.12-1.219 c-0.416,0.182-0.819,0.373-1.221,0.577c-4.445,2.278-6.895,5.318-6.895,8.561c0,3.26,2.45,6.304,6.899,8.572 C38.009,93.775,43.818,95,50,95c6.184,0,11.992-1.225,16.356-3.448c4.448-2.269,6.898-5.313,6.898-8.572 c0-3.242-2.449-6.282-6.898-8.563c-0.457-0.233-0.932-0.455-1.419-0.665c-1.203-0.516-2.595,0.037-3.112,1.237 c-0.517,1.202,0.037,2.596,1.238,3.112c0.393,0.17,0.773,0.348,1.136,0.532c3.188,1.634,4.319,3.362,4.319,4.346 c0,0.993-1.13,2.729-4.313,4.352c-3.71,1.892-8.755,2.932-14.205,2.932c-5.449,0-10.494-1.04-14.205-2.932 c-3.185-1.622-4.313-3.358-4.313-4.352C31.481,81.996,32.611,80.268,35.791,78.639z"/></g><g id="change1_2"><path d="M50.313,5.008C50.249,5.003,50.185,5,50.12,5h-0.239c-0.065,0-0.129,0.003-0.191,0.008 c-15.606,0.23-28.271,13.068-28.271,28.656c-0.246,15.509,11.621,29.702,20.286,40.064c2.541,3.039,4.736,5.665,6.221,7.839 c0.44,0.646,1.173,1.033,1.956,1.033h0.239c0.783,0,1.516-0.387,1.957-1.033c1.483-2.175,3.679-4.8,6.22-7.84 c8.664-10.362,20.53-24.556,20.285-40.025C78.582,18.077,65.916,5.24,50.313,5.008z M54.663,70.689 c-1.74,2.082-3.323,3.975-4.663,5.704c-1.34-1.729-2.922-3.622-4.662-5.703c-8.188-9.793-19.401-23.205-19.183-36.988 c0-13.094,10.652-23.842,23.747-23.96c0.033,0,0.065-0.001,0.098-0.003c0.033,0.002,0.065,0.003,0.099,0.003 C63.192,9.86,73.845,20.608,73.845,33.739C74.063,47.485,62.851,60.896,54.663,70.689z"/></g><g id="change1_3"><path d="M50,23.238c-5.788,0.063-10.467,4.723-10.467,10.468S44.207,44.11,50,44.173c5.794-0.063,10.467-4.722,10.467-10.467 S55.788,23.301,50,23.238z"/></g></svg>