<?xml version="1.0" encoding="UTF-8"?><svg xmlns="http://www.w3.org/2000/svg" xmlns:xlink="http://www.w3.org/1999/xlink" height="854.0" preserveAspectRatio="xMidYMid meet" version="1.0" viewBox="0.0 0.0 739.1 854.0" width="739.1" zoomAndPan="magnify"><g id="change1_1"><path d="M648.5 0H739.1V854H648.5z"/><path d="M650.4,598.6l-197.5-120l14.3-23.5l-82.6-1.8l39.7,72.4l14.3-23.5l178.2,108.3L387,752.8l14.5,23.5l248.9-154.1 c4.1-2.5,6.6-7,6.5-11.8C657,605.5,654.5,601.1,650.4,598.6z"/><path d="M650.4,221L452.9,101l14.3-23.5l-82.6-1.8l39.7,72.4l14.3-23.5l178.2,108.3L387,375.2l14.5,23.5l248.9-154.1 c4.1-2.5,6.6-7,6.5-11.8C657,228,654.5,223.5,650.4,221z"/></g><g><g id="change1_3"><path d="M0 391.2H47.4V472.4H0z"/><path d="M56.8 391.2L55.4 473.9 135.9 545.3 135.9 322.2z"/></g><g id="change1_2"><path d="M165.8,380.8c-4.2-3.9-10.7-3.7-14.6,0.5c-3.9,4.2-3.7,10.7,0.5,14.6c0.2,0.2,16.9,16.4,16.7,36 c-0.1,11-5.7,21.6-16.5,31.4c-4.2,3.8-4.6,10.4-0.7,14.6c2,2.3,4.9,3.4,7.7,3.4c2.5,0,5-0.9,6.9-2.7c8-7.2,14-15,17.9-23.2 c3.6-7.5,5.4-15.3,5.5-23.4C189.3,403.2,166.7,381.7,165.8,380.8z"/><path d="M238,398.4c-9.4-29.2-28.1-48.8-28.9-49.6c-4-4.1-10.5-4.3-14.6-0.3c-4.1,4-4.3,10.5-0.3,14.6 c0.2,0.2,16.5,17.5,24.3,42.3c10.1,31.9,2,61.4-24.2,87.6c-4,4-4,10.6,0,14.6c2,2,4.7,3,7.3,3c2.7,0,5.3-1,7.3-3 C249.1,467.4,246.9,426,238,398.4z"/><path d="M300.9,379.7c-13.1-40.4-38.8-67.5-39.9-68.7c-4-4.1-10.5-4.3-14.6-0.3c-4.1,4-4.3,10.5-0.3,14.6 c0.1,0.1,6.1,6.4,13.4,17.2c6.7,9.8,16,25.5,21.9,44.2c15,47,3.1,90.4-35.2,128.8c-4,4-4,10.6,0,14.6c2,2,4.7,3,7.3,3 c2.7,0,5.3-1,7.3-3c24.3-24.4,39.5-51.2,45-79.6C310.4,427.6,308.7,403.8,300.9,379.7z"/></g></g></svg>