<?xml version="1.0" encoding="UTF-8" standalone="no"?><svg xmlns="http://www.w3.org/2000/svg" xmlns:xlink="http://www.w3.org/1999/xlink" fill="#8c756a" height="510.9" preserveAspectRatio="xMidYMid meet" version="1" viewBox="-0.9 1.0 511.9 510.9" width="511.9" zoomAndPan="magnify"><g><g id="change1_1"><path d="M256.004,0.999c-140.951,0-255,114.07-255,255c0,41.677,10.244,82.842,29.675,119.452L1.452,492.361 c-2.377,9.503,4.841,18.638,14.552,18.638c3.492,0-2.359,0.888,120.548-29.675c36.61,19.431,77.775,29.675,119.452,29.675 c140.951,0,255-114.068,255-255C511.004,115.048,396.935,0.999,256.004,0.999z M256.004,480.999 c-38.563,0-76.621-9.933-110.057-28.725c-2.263-1.271-4.796-1.924-7.35-1.924c-3.43,0,1.177-0.595-101.979,25.033l24.585-98.341 c0.93-3.716,0.401-7.647-1.476-10.987c-18.792-33.436-28.725-71.493-28.725-110.057c0-124.065,100.935-225,225-225 s225,100.935,225,225S380.069,480.999,256.004,480.999z"/><path d="M371.794,286.326c-14.023-14.022-36.178-16.216-52.677-5.216l-23.668,15.778c-33.601-18.635-61.701-46.733-80.335-80.335 l15.778-23.668c11.001-16.5,8.807-38.654-5.216-52.676l-23.136-23.136c-16.316-16.317-42.726-16.314-59.039,0l-20.16,20.16 c-20.268,20.268-28.173,50.036-20.631,77.688c25.82,94.674,99.842,168.59,194.37,194.37c27.8,7.582,57.537-0.479,77.688-20.631 l20.16-20.16c16.316-16.316,16.315-42.724,0-59.039L371.794,286.326z M373.717,347.288l-20.16,20.159 c-12.674,12.674-31.285,17.619-48.583,12.901c-83.998-22.908-150.411-89.321-173.319-173.32 c-4.717-17.292,0.227-35.908,12.9-48.582l20.16-20.16c4.591-4.591,12.023-4.59,16.613,0l23.136,23.137 c3.945,3.945,4.563,10.179,1.468,14.822l-20.725,31.087c-2.986,4.479-3.343,10.214-0.936,15.028 c22.649,45.3,60.071,82.722,105.371,105.371c4.813,2.407,10.551,2.051,15.028-0.936l31.087-20.725 c4.642-3.094,10.877-2.479,14.823,1.468l23.136,23.136C378.308,335.266,378.307,342.698,373.717,347.288z"/><path d="M256.004,75.999c-8.284,0-15,6.716-15,15s6.716,15,15,15c82.71,0,150,67.29,150,150c0,8.284,6.716,15,15,15 s15-6.716,15-15C436.004,156.746,355.256,75.999,256.004,75.999z"/></g></g></svg>