<?xml version="1.0" encoding="UTF-8"?><svg xmlns="http://www.w3.org/2000/svg" xmlns:xlink="http://www.w3.org/1999/xlink" height="62.0" preserveAspectRatio="xMidYMid meet" version="1.0" viewBox="0.0 0.0 62.0 62.0" width="62.0" zoomAndPan="magnify"><g id="change1_1"><path d="M 34 6.554688 C 32.667969 8.222656 30 11.941406 30 15 C 30 17.207031 31.792969 19 34 19 C 36.207031 19 38 17.207031 38 15 C 38 11.941406 35.332031 8.222656 34 6.554688 Z M 34 21 C 30.691406 21 28 18.308594 28 15 C 28 10.167969 33.042969 4.5625 33.261719 4.328125 C 33.640625 3.910156 34.359375 3.910156 34.738281 4.328125 C 34.957031 4.5625 40 10.167969 40 15 C 40 18.308594 37.308594 21 34 21" fill="inherit"/><path d="M 46 27.542969 C 44.25 29.679688 40 35.34375 40 40 C 40 43.308594 42.691406 46 46 46 C 49.308594 46 52 43.308594 52 40 C 52 35.335938 47.753906 29.675781 46 27.542969 Z M 46 48 C 41.589844 48 38 44.410156 38 40 C 38 33.390625 44.964844 25.652344 45.261719 25.328125 C 45.640625 24.910156 46.359375 24.910156 46.738281 25.328125 C 47.035156 25.652344 54 33.390625 54 40 C 54 44.410156 50.410156 48 46 48" fill="inherit"/><path d="M 44 43.234375 C 43.761719 43.234375 43.523438 43.148438 43.332031 42.976562 C 42.484375 42.21875 42 41.132812 42 40 C 42 39.316406 42.121094 38.550781 42.363281 37.722656 C 42.515625 37.191406 43.066406 36.886719 43.601562 37.039062 C 44.132812 37.195312 44.4375 37.746094 44.28125 38.277344 C 44.09375 38.925781 44 39.507812 44 40 C 44 40.566406 44.242188 41.109375 44.667969 41.488281 C 45.078125 41.859375 45.113281 42.488281 44.742188 42.902344 C 44.546875 43.121094 44.273438 43.234375 44 43.234375" fill="inherit"/><path d="M 21 51 C 19.492188 51 18.027344 50.722656 16.636719 50.179688 C 16.121094 49.980469 15.867188 49.402344 16.070312 48.886719 C 16.269531 48.371094 16.847656 48.117188 17.363281 48.320312 C 18.519531 48.769531 19.742188 49 21 49 C 26.515625 49 31 44.515625 31 39 C 31 37.839844 30.835938 36.574219 30.507812 35.238281 C 30.375 34.703125 30.703125 34.160156 31.238281 34.027344 C 31.777344 33.898438 32.316406 34.226562 32.449219 34.761719 C 32.816406 36.25 33 37.675781 33 39 C 33 45.617188 27.617188 51 21 51" fill="inherit"/><path d="M 12 46.328125 C 11.6875 46.328125 11.378906 46.175781 11.183594 45.902344 C 9.753906 43.875 9 41.488281 9 39 C 9 28.832031 19.800781 16.832031 20.261719 16.328125 C 20.640625 15.910156 21.359375 15.910156 21.738281 16.328125 C 21.925781 16.53125 26.308594 21.382812 29.570312 27.53125 C 29.828125 28.019531 29.644531 28.625 29.15625 28.882812 C 28.667969 29.140625 28.0625 28.957031 27.800781 28.46875 C 25.441406 24.015625 22.386719 20.175781 21 18.53125 C 18.570312 21.421875 11 31.074219 11 39 C 11 41.074219 11.628906 43.058594 12.816406 44.75 C 13.136719 45.203125 13.027344 45.824219 12.578125 46.144531 C 12.402344 46.265625 12.199219 46.328125 12 46.328125" fill="inherit"/><path d="M 15 43.601562 C 14.660156 43.601562 14.332031 43.429688 14.144531 43.117188 C 13.394531 41.878906 13 40.453125 13 39 C 13 38.003906 13.140625 36.914062 13.421875 35.765625 C 13.550781 35.226562 14.09375 34.894531 14.628906 35.027344 C 15.164062 35.15625 15.492188 35.699219 15.363281 36.234375 C 15.121094 37.230469 15 38.164062 15 39 C 15 40.089844 15.296875 41.15625 15.855469 42.085938 C 16.140625 42.558594 15.988281 43.171875 15.515625 43.460938 C 15.355469 43.554688 15.175781 43.601562 15 43.601562" fill="inherit"/><path d="M 31 2 C 15.011719 2 2 15.007812 2 31 C 2 46.988281 15.011719 60 31 60 C 46.988281 60 60 46.988281 60 31 C 60 15.007812 46.988281 2 31 2 Z M 31 62 C 13.90625 62 0 48.09375 0 31 C 0 13.90625 13.90625 0 31 0 C 48.09375 0 62 13.90625 62 31 C 62 48.09375 48.09375 62 31 62" fill="inherit"/><path d="M 9.789062 53.214844 C 9.53125 53.214844 9.273438 53.113281 9.082031 52.917969 C 8.6875 52.53125 8.6875 51.898438 9.082031 51.507812 L 51.507812 9.078125 C 51.898438 8.6875 52.53125 8.6875 52.917969 9.078125 C 53.308594 9.46875 53.308594 10.101562 52.917969 10.492188 L 10.492188 52.917969 C 10.296875 53.113281 10.042969 53.214844 9.789062 53.214844" fill="inherit"/></g></svg>